<svg width="160" height="33" viewBox="0 0 160 33" fill="none" xmlns="http://www.w3.org/2000/svg">
<path d="M56.3837 3.16895H46.5771V26.5695H56.3837C62.9248 26.5695 68.2245 23.2572 68.2245 14.8692C68.2245 6.48129 62.9248 3.16895 56.3837 3.16895ZM55.8685 23.0932H50.639V6.64525H55.8685C60.9608 6.64525 63.9921 9.00403 63.9921 14.8692C63.9921 20.7344 60.9608 23.0932 55.8685 23.0932Z" fill="white"/>
<path d="M84.3645 9.65918V18.9639C84.3645 22.2729 82.541 23.8488 79.4428 23.8488C76.3446 23.8488 74.5245 22.3733 74.5245 19.1278V9.65918H70.6333V19.1278C70.6333 24.6986 73.9724 27.0273 79.4428 27.0273C84.9132 27.0273 88.2523 24.5346 88.2523 18.9639V9.65918H84.3645Z" fill="white"/>
<path d="M101.746 9.2002C99.0594 9.2002 97.0318 10.0835 95.5864 12.081H95.2418L94.8972 9.65857H91.354V32.7915H95.2418V24.2062H95.5864C97.0653 26.1735 99.0962 27.0267 101.746 27.0267C106.286 27.0267 110.004 23.9786 110.004 18.1134C110.004 12.2482 106.286 9.2002 101.746 9.2002ZM100.609 23.9452C97.4434 23.9452 95.1716 21.8474 95.1716 18.1134C95.1716 14.3795 97.4434 12.2783 100.609 12.2783C103.774 12.2783 106.045 14.3092 106.045 18.1134C106.045 21.9176 103.777 23.9452 100.609 23.9452Z" fill="white"/>
<path d="M121.226 9.2002C115.719 9.2002 111.727 12.0809 111.727 18.1134C111.727 24.1459 115.719 27.0267 121.226 27.0267C126.733 27.0267 130.721 24.1426 130.721 18.1134C130.721 12.0843 126.766 9.2002 121.226 9.2002ZM121.259 24.0121C117.957 24.0121 115.719 22.1083 115.719 18.1134C115.719 14.1185 117.92 12.1813 121.226 12.1813C124.531 12.1813 126.766 14.1152 126.766 18.1134C126.766 22.1117 124.528 24.0121 121.259 24.0121Z" fill="white"/>
<path d="M141.668 24.0121C138.637 24.0121 136.435 22.0113 136.435 18.1134C136.435 14.2156 138.637 12.1813 141.668 12.1813C143.766 12.1813 145.763 13.3289 146.208 15.4903H149.996C149.477 11.3616 145.797 9.2002 141.702 9.2002C136.506 9.2002 132.444 12.0809 132.444 18.1134C132.444 24.1459 136.506 27.0267 141.702 27.0267C145.797 27.0267 149.477 24.8619 149.996 20.7332H146.208C145.763 22.8979 143.766 24.0121 141.668 24.0121Z" fill="white"/>
<path d="M157.755 12.2368C158.187 12.0963 158.421 11.755 158.421 11.3535C158.421 10.8416 158.049 10.4401 157.384 10.4401H156.283V13.4279H156.718V12.2803H157.29L158.016 13.4279H158.498L157.755 12.2368ZM156.718 11.9089V10.8249H157.367C157.755 10.8249 157.972 11.0725 157.972 11.3669C157.972 11.6613 157.755 11.9089 157.367 11.9089H156.718ZM157.755 12.2368C158.187 12.0963 158.421 11.755 158.421 11.3535C158.421 10.8416 158.049 10.4401 157.384 10.4401H156.283V13.4279H156.718V12.2803H157.29L158.016 13.4279H158.498L157.755 12.2368ZM156.718 11.9089V10.8249H157.367C157.755 10.8249 157.972 11.0725 157.972 11.3669C157.972 11.6613 157.755 11.9089 157.367 11.9089H156.718ZM157.26 9.20215C155.433 9.20215 154.52 10.5639 154.52 11.9256C154.52 13.2874 155.433 14.6491 157.26 14.6491C159.087 14.6491 160 13.2874 160 11.9256C160 10.5639 159.087 9.20215 157.26 9.20215ZM157.26 14.1707C155.757 14.1707 155.015 13.0398 155.015 11.9256C155.015 10.8115 155.757 9.6806 157.26 9.6806C158.762 9.6806 159.505 10.7948 159.505 11.9256C159.505 13.0565 158.762 14.1707 157.26 14.1707ZM158.421 11.3535C158.421 10.8416 158.049 10.4401 157.384 10.4401H156.283V13.4279H156.718V12.2803H157.29L158.016 13.4279H158.498L157.755 12.2368C158.187 12.0963 158.421 11.755 158.421 11.3535ZM156.718 11.9089V10.8249H157.367C157.755 10.8249 157.972 11.0725 157.972 11.3669C157.972 11.6613 157.755 11.9089 157.367 11.9089H156.718Z" fill="white"/>
<path d="M10.777 21.6476L18.7434 26.683L14.3604 29.4567C13.5139 29.9954 12.3864 29.7411 11.851 28.8913L0.281241 10.5997C-0.254088 9.74987 -0.00315148 8.62569 0.846684 8.08702L13.1927 0.281241C14.0426 -0.254088 15.1667 -0.00315148 15.7021 0.846684L18.7434 5.65126L10.2116 19.1382C9.67627 19.9881 9.92721 21.1122 10.777 21.6476Z" fill="#8B31FF"/>
<path d="M37.2025 10.5997L25.6327 28.8913C25.0973 29.7411 23.9731 29.9954 23.1233 29.4567L18.7437 26.683L26.7067 21.6476C27.5565 21.1122 27.8108 19.9881 27.2721 19.1382L18.7437 5.65126L21.7783 0.846684C22.317 -0.00315148 23.4412 -0.254088 24.291 0.281241L36.637 8.08702C37.4869 8.62569 37.7411 9.74987 37.2025 10.5997Z" fill="#EF7929"/>
</svg>
